<?xml version="1.0" encoding="UTF-8" standalone="no"?>
<!-- Created with Inkscape (http://www.inkscape.org/) -->

<svg
   width="212.11679mm"
   height="180.69194mm"
   viewBox="0 0 212.11679 180.69194"
   version="1.1"
   id="svg5"
   xml:space="preserve"
   xmlns:inkscape="http://www.inkscape.org/namespaces/inkscape"
   xmlns:sodipodi="http://sodipodi.sourceforge.net/DTD/sodipodi-0.dtd"
   xmlns="http://www.w3.org/2000/svg"
   xmlns:svg="http://www.w3.org/2000/svg"><sodipodi:namedview
     id="namedview7"
     pagecolor="#ffffff"
     bordercolor="#000000"
     borderopacity="0.25"
     inkscape:showpageshadow="2"
     inkscape:pageopacity="0.0"
     inkscape:pagecheckerboard="0"
     inkscape:deskcolor="#d1d1d1"
     inkscape:document-units="mm"
     showgrid="false" /><defs
     id="defs2" /><g
     inkscape:label="Layer 1"
     inkscape:groupmode="layer"
     id="layer1"
     transform="translate(130.71102,-29.012511)"><g
       id="g1614"
       inkscape:export-filename="top_banner.png"
       inkscape:export-xdpi="96"
       inkscape:export-ydpi="96"><g
         id="g1792"
         inkscape:export-filename="top_banner.png"
         inkscape:export-xdpi="96"
         inkscape:export-ydpi="96"><g
           id="g1804"
           inkscape:export-filename="top_b.svg"
           inkscape:export-xdpi="96"
           inkscape:export-ydpi="96"><g
             id="g10142"
             transform="translate(74.86957,-12.180228)"><g
               id="g10162"
               style="fill:#ffffff;stroke:#ffffff"><path
                 style="fill:#ffffff;stroke:#ffffff;stroke-width:0.264583"
                 d="m -101.17185,220.73939 c -1.09107,-0.92066 -17.9336,-14.19698 -33.9105,-26.73035 -4.46992,-3.5065 -6.4801,-5.23946 -6.38006,-5.50016 0.0803,-0.20935 0.42697,-0.48744 0.77031,-0.61798 0.69051,-0.26253 7.74013,-0.94262 20.57438,-1.98485 l 8.43849,-0.68527 1.31359,1.27556 c 0.72247,0.70156 2.03131,2.109 2.90855,3.12765 0.87723,1.01864 2.43824,2.7295 3.46891,3.8019 l 1.87394,1.94981 7.416507,-0.95834 c 4.079078,-0.52709 9.726151,-1.25783 12.549054,-1.62386 2.822901,-0.36604 5.181523,-0.61655 5.241383,-0.55669 0.145809,0.14581 -2.476019,3.58168 -8.100899,10.61613 -2.559856,3.20134 -5.181237,6.53509 -5.825291,7.40833 -1.253154,1.69909 -9.028631,11.51858 -9.10315,11.49619 -0.02453,-0.007 -0.580374,-0.4655 -1.235214,-1.01807 z m 29.936993,-28.1594 c -0.158578,-0.62977 -0.369629,-1.8368 -0.468998,-2.68228 l -0.180671,-1.53724 -2.406684,0.155 c -1.323676,0.0853 -6.931059,0.74456 -12.460851,1.46514 -5.529791,0.72057 -10.846357,1.38984 -11.814589,1.48727 l -1.76042,0.17713 -4.45729,-4.94789 -4.45728,-4.94789 -3.43959,0.1579 c -1.89177,0.0868 -7.4877,0.51084 -12.43541,0.94221 -4.94771,0.43137 -10.05662,0.86788 -11.35312,0.97001 l -2.35729,0.18571 0.18116,-3.38884 c 0.22693,-4.24474 0.30308,-4.54918 1.18475,-4.73619 0.60574,-0.12848 18.8915,-1.1421 28.88096,-1.60093 l 3.30729,-0.15192 3.83646,4.24389 c 2.110047,2.33414 4.176358,4.61638 4.591799,5.07165 l 0.755348,0.82776 9.960276,-1.38644 c 5.478153,-0.76254 10.597862,-1.51171 11.377128,-1.66483 l 1.416849,-0.2784 -0.18383,-2.20685 c -0.101105,-1.21376 -0.132249,-2.20685 -0.06921,-2.20685 0.360656,0 15.765629,5.75369 16.053175,5.99579 0.06215,0.0523 -0.235505,0.46621 -0.661458,0.91974 -0.988436,1.05241 -12.235603,10.28239 -12.529581,10.28239 -0.121333,0 -0.350348,-0.51527 -0.508926,-1.14504 z"
                 id="path10148" /><path
                 style="fill:#ffffff;stroke:#ffffff;stroke-width:0.264583"
                 d="m -157.98033,146.2977 c -11.09003,-10.93763 -20.1194,-19.9309 -20.06525,-19.98505 0.0541,-0.0541 8.75691,-0.0113 19.33948,0.0951 l 19.24105,0.19357 1.0537,2.27486 c 1.89129,4.08315 16.51152,36.39357 16.683,36.86912 0.15677,0.43471 -0.32997,0.46229 -7.96066,0.45099 l -8.12763,-0.012 z m 44.92083,18.65389 c -0.55401,-1.13028 -17.08457,-37.56783 -17.40479,-38.36458 -0.10544,-0.26234 3.07386,-0.33073 15.37351,-0.33073 h 15.506428 v 19.97604 19.97604 h -6.429568 -6.42957 z m 21.941815,-18.73455 v -19.99131 l 15.720863,0.0814 c 8.646475,0.0448 15.796961,0.15761 15.88997,0.25073 0.14615,0.14633 -3.511037,8.11252 -15.560513,33.89437 l -2.688863,5.75327 -6.680729,0.001 -6.680728,0.001 z m 22.888788,19.45481 c 0.262485,-0.82702 17.857437,-38.72715 18.084548,-38.95474 0.110114,-0.11034 6.991823,-0.16987 15.292688,-0.13229 l 15.092484,0.0683 -6.592303,7.14375 c -3.625768,3.92907 -11.853073,12.82487 -18.282901,19.76846 l -11.690598,12.62471 -6.037101,0.009 c -5.946242,0.009 -6.034537,0.001 -5.866817,-0.52737 z m 32.68026,-46.63391 c -0.360201,-0.18226 -1.340003,-1.22148 -2.177338,-2.30938 -0.837338,-1.08791 -1.643957,-2.01851 -1.792489,-2.06803 -0.166544,-0.0555 -0.270057,0.62004 -0.270057,1.76248 0,2.2195 -0.149902,2.68952 -0.857761,2.68952 -0.522316,0 -0.531468,-0.0966 -0.344688,-3.63802 0.105531,-2.00091 0.230465,-3.67743 0.277627,-3.7256 0.265597,-0.27127 1.253204,0.68328 2.52412,2.43965 0.793874,1.09711 1.532707,1.99898 1.641848,2.00415 0.10914,0.005 0.198437,-0.8143 0.198437,-1.82104 0,-2.25409 0.147897,-2.66747 0.954349,-2.66747 h 0.633151 v 3.83645 c 0,2.11006 -0.02977,3.83471 -0.06615,3.83256 -0.03638,-0.002 -0.360854,-0.15302 -0.721053,-0.33527 z M -167.0531,115.3701 v -3.74242 l 1.78364,0.16655 c 2.23823,0.20901 3.07895,0.77203 3.19448,2.13929 0.11476,1.35817 -0.49533,2.20399 -1.73497,2.40536 -1.88805,0.30671 -2.18482,0.53893 -2.18482,1.70964 0,0.88762 -0.0877,1.06401 -0.52916,1.06401 -0.50423,0 -0.52917,-0.17639 -0.52917,-3.74243 z m 3.38071,-0.37361 c 0.32342,-0.22654 0.58804,-0.54459 0.58804,-0.70677 0,-1.15576 -2.44498,-1.78307 -2.78419,-0.71435 -0.0957,0.30155 -0.10145,0.83733 -0.0128,1.19063 0.19263,0.76751 1.2802,0.88099 2.20893,0.23049 z m 6.14429,0.37769 v -3.73836 l 1.87914,0.18517 c 2.3618,0.23272 2.55214,0.3098 3.02544,1.22505 0.545,1.05392 0.48377,1.67766 -0.25036,2.55012 -0.4791,0.56937 -0.57407,0.87079 -0.38233,1.21342 0.14031,0.25072 0.42876,0.87145 0.64099,1.3794 0.37467,0.89669 0.36847,0.92353 -0.21297,0.92278 -0.44476,-5.2e-4 -0.76908,-0.32398 -1.26033,-1.25677 -0.50688,-0.9625 -0.82884,-1.27531 -1.37776,-1.33863 -0.6761,-0.078 -0.72627,-0.007 -0.89398,1.25677 -0.1418,1.06897 -0.27764,1.3394 -0.67276,1.3394 -0.46036,0 -0.49508,-0.26218 -0.49508,-3.73835 z m 3.09055,-0.12779 c 0.71952,-0.19297 0.93389,-0.71545 0.6259,-1.52551 -0.23586,-0.62036 -1.0431,-0.93427 -1.93051,-0.75073 -0.35682,0.0738 -0.46302,0.36441 -0.46302,1.26699 0,1.03928 0.0671,1.17082 0.59531,1.16761 0.32742,-0.002 0.85497,-0.0733 1.17232,-0.15836 z m 6.69903,0.18137 c 0,-3.56444 0.0229,-3.72356 0.53664,-3.72356 0.51665,0 0.53389,0.13533 0.46302,3.63473 -0.0652,3.21705 -0.12682,3.64494 -0.53664,3.72357 -0.42324,0.0812 -0.46302,-0.23103 -0.46302,-3.63474 z m 5.82084,-0.0194 c 0,-3.07231 0.0659,-3.70416 0.38656,-3.70416 0.57952,0 1.27643,0.86628 2.12469,2.64105 0.41858,0.87575 0.8565,1.59228 0.97317,1.59228 0.11667,0 0.5844,-0.74414 1.03939,-1.65365 0.99713,-1.99316 1.48351,-2.57968 2.13924,-2.57968 0.46399,0 0.49093,0.23225 0.42202,3.63802 -0.0609,3.00949 -0.14155,3.63802 -0.46687,3.63802 -0.42924,0 -0.42342,0.0226 -0.67406,-2.61538 l -0.17307,-1.82162 -1.04243,1.88777 c -0.57334,1.03827 -1.12769,1.88636 -1.23189,1.88463 -0.1042,-0.002 -0.58108,-0.7161 -1.05973,-1.5875 -0.47865,-0.8714 -0.98466,-1.58436 -1.12448,-1.58436 -0.13996,0 -0.25421,0.89183 -0.25421,1.98437 0,1.80799 -0.047,1.98438 -0.52917,1.98438 -0.50396,0 -0.52916,-0.17639 -0.52916,-3.70417 z m 11.64166,0 v -3.70416 h 1.96274 c 2.19373,0 2.79976,0.1493 2.79976,0.68976 0,0.27724 -0.42618,0.36857 -1.71979,0.36857 h -1.71979 v 1.04384 1.04383 l 1.25677,0.0807 c 0.9049,0.0581 1.25677,0.19176 1.25677,0.47751 0,0.27439 -0.36748,0.43771 -1.19062,0.52917 -1.15738,0.1286 -1.19292,0.16 -1.27275,1.12448 l -0.0821,0.99219 h 1.31725 c 1.56387,0 2.15427,0.18903 2.15427,0.68976 0,0.28773 -0.52225,0.36857 -2.38125,0.36857 h -2.38125 z m 14.02292,0 c 0,-3.52777 0.0252,-3.70416 0.52917,-3.70416 0.50396,0 0.52916,0.17639 0.52916,3.70416 0,3.52778 -0.0252,3.70417 -0.52916,3.70417 -0.50397,0 -0.52917,-0.17639 -0.52917,-3.70417 z m 5.82083,0 c 0,-4.5356 0.0972,-4.58989 2.60128,-1.45277 0.92817,1.16283 1.77738,2.14833 1.88712,2.19 0.22696,0.0862 0.53869,-1.89292 0.53869,-3.41999 0,-0.84501 0.0914,-1.0214 0.52916,-1.0214 0.50397,0 0.52917,0.17639 0.52917,3.70416 0,3.40036 -0.0393,3.70417 -0.47967,3.70417 -0.54175,0 -1.29327,-0.76678 -2.9173,-2.97656 -0.61495,-0.83675 -1.22848,-1.52136 -1.3634,-1.52136 -0.13492,0 -0.27989,0.98095 -0.32216,2.17989 -0.0645,1.82946 -0.15128,2.19411 -0.53987,2.26836 -0.42332,0.0809 -0.46302,-0.23245 -0.46302,-3.6545 z m 12.415789,3.13833 c -0.386702,-0.72256 -2.361619,-6.24878 -2.361619,-6.6083 0,-0.14905 0.26501,-0.23295 0.588903,-0.18645 0.479774,0.0689 0.754694,0.53809 1.483545,2.53194 0.492051,1.34607 0.985001,2.4474 1.095446,2.4474 0.110443,0 0.528386,-0.92273 0.928759,-2.05052 0.693097,-1.95234 1.523397,-3.13188 1.998078,-2.83851 0.229558,0.14187 -0.834054,3.51138 -1.856457,5.88122 -0.654645,1.51741 -1.343432,1.81955 -1.876655,0.82322 z m 8.221712,-3.13833 v -3.70416 h 1.962735 c 2.193737,0 2.799765,0.1493 2.799765,0.68976 0,0.27724 -0.426183,0.36857 -1.719792,0.36857 h -1.719791 v 1.05833 1.05834 h 1.175009 c 0.646255,0 1.233712,0.095 1.305459,0.21107 0.269349,0.43581 -0.273105,0.81067 -1.293278,0.89369 -1.010073,0.0822 -1.058388,0.12802 -1.137017,1.07805 l -0.08212,0.99219 h 1.317249 c 1.563875,0 2.154277,0.18903 2.154277,0.68976 0,0.28773 -0.522256,0.36857 -2.38125,0.36857 h -2.38125 z m 9.374759,3.09087 c -0.698643,-0.60411 -0.727795,-0.68948 -0.293108,-0.85837 0.265483,-0.10315 0.933048,-0.0389 1.483481,0.14275 1.283531,0.4236 2.194566,0.15993 2.084147,-0.60319 -0.04487,-0.31006 -0.379227,-0.69974 -0.743029,-0.86595 -2.852394,-1.30318 -2.773289,-1.23644 -2.858723,-2.41189 -0.06976,-0.9598 0.01638,-1.17246 0.640644,-1.58149 0.928124,-0.60813 2.455931,-0.60405 3.391656,0.009 1.027711,0.67338 0.537925,1.12454 -0.84088,0.77456 -1.137737,-0.2888 -2.184781,-0.0286 -2.184781,0.54292 0,0.53104 0.497539,0.8714 1.771751,1.21205 1.435817,0.38386 2.298295,1.43125 2.079479,2.52532 -0.233582,1.16792 -0.748585,1.53574 -2.334392,1.66725 -1.234286,0.10235 -1.522116,0.0299 -2.196245,-0.55304 z m 10.940409,-2.49555 -0.07454,-3.10886 -1.124479,-0.0814 c -0.909074,-0.0658 -1.124479,-0.17981 -1.124479,-0.59531 0,-0.47773 0.205105,-0.51395 2.910417,-0.51395 2.67395,0 2.910416,0.0405 2.910416,0.4983 0,0.50768 -0.666811,0.81421 -1.785937,0.821 -0.577104,0.003 -0.595313,0.0839 -0.595313,2.62781 0,2.83436 -0.123401,3.46122 -0.681368,3.46122 -0.279175,0 -0.376936,-0.69913 -0.434713,-3.10885 z m 7.466081,-0.59532 c 0,-2.7891 0.0817,-3.70316 0.330729,-3.70011 0.572508,0.007 0.864071,0.34416 1.874094,2.16713 0.540687,0.97586 1.094049,1.84289 1.229696,1.92673 0.135649,0.0838 0.738822,-0.74437 1.34039,-1.84045 0.892841,-1.62681 1.210865,-1.99288 1.731298,-1.99288 h 0.637543 v 3.57187 c 0,3.32118 -0.03496,3.57188 -0.498081,3.57188 -0.426919,0 -0.52465,-0.28352 -0.684033,-1.98438 -0.102274,-1.0914 -0.278267,-1.98437 -0.391096,-1.98437 -0.112832,0 -0.586992,0.71641 -1.053693,1.59203 -0.466698,0.87562 -0.962202,1.52179 -1.101116,1.43594 -0.138914,-0.0859 -0.634423,-0.89157 -1.101132,-1.79047 -0.798494,-1.53795 -0.852834,-1.58755 -0.92106,-0.84063 -0.301927,3.30549 -0.36781,3.57188 -0.883412,3.57188 -0.479488,0 -0.510127,-0.22247 -0.510127,-3.70417 z m 11.906249,0 v -3.70416 h 1.962735 c 2.193737,0 2.799765,0.1493 2.799765,0.68976 0,0.27724 -0.426183,0.36857 -1.719791,0.36857 h -1.719792 v 1.05833 1.05834 h 1.175009 c 0.646256,0 1.233713,0.095 1.30546,0.21107 0.269348,0.43581 -0.273106,0.81067 -1.293278,0.89369 -1.010074,0.0822 -1.058389,0.12802 -1.137018,1.07805 l -0.08212,0.99219 h 1.317249 c 1.563875,0 2.154277,0.18903 2.154277,0.68976 0,0.28773 -0.522256,0.36857 -2.38125,0.36857 h -2.38125 z m 21.695833,0.54438 v -3.15978 l -1.122196,-0.0814 c -0.8186,-0.0594 -1.145958,-0.20663 -1.210027,-0.54438 -0.07955,-0.41936 0.200917,-0.46302 2.974282,-0.46302 2.885717,0 3.062107,0.0305 3.062107,0.52916 0,0.45077 -0.17639,0.52917 -1.190625,0.52917 h -1.190625 v 3.175 3.175 h -0.661458 -0.661458 z m -51.512849,-11.23674 -0.742357,-0.63819 -0.07772,-7.387998 c -0.07216,-6.859463 -0.04272,-7.431212 0.411483,-7.992128 0.642741,-0.793753 2.707846,-1.135126 5.535075,-0.914977 2.518341,0.196096 3.061882,0.582684 3.501268,2.49024 0.531609,2.307942 0.49253,2.38125 -1.269458,2.38125 -1.688814,0 -1.870725,-0.185677 -1.87933,-1.918229 -0.0033,-0.669338 -0.08663,-0.727605 -1.040304,-0.727605 -0.570183,0 -1.225026,-0.07227 -1.455208,-0.160599 -0.374931,-0.143872 -0.418516,0.546423 -0.418516,6.62841 v 6.789006 l 1.389063,-0.08 1.389062,-0.08 0.07649,-2.31772 c 0.07487,-2.268691 0.06227,-2.323129 -0.595313,-2.573142 -0.565755,-0.215101 -0.671798,-0.423508 -0.671798,-1.3203 v -1.064881 h 2.415167 2.415164 l -0.117882,3.63802 c -0.180142,5.559433 -0.458618,5.876883 -5.160716,5.883083 -2.751818,0.004 -3.014441,-0.0414 -3.704167,-0.6343 z m 19.196848,0.13278 c -0.623821,-0.50477 -0.624726,-0.51437 -0.705704,-7.47448 -0.04459,-3.832984 -0.0093,-7.356917 0.07851,-7.83096 0.262276,-1.416471 1.04638,-1.726221 4.447842,-1.757066 1.629682,-0.01476 3.270069,0.05957 3.645304,0.165224 1.246751,0.351039 1.375601,1.1019 1.488043,8.671449 l 0.104153,7.011453 -0.802761,0.8599 -0.802762,0.8599 h -3.414001 c -2.966151,0 -3.495939,-0.0663 -4.038626,-0.50542 z m 5.262322,-1.94198 c 0.339558,-0.42669 0.643241,-9.103457 0.391247,-11.178645 l -0.192775,-1.5875 h -1.455209 -1.455208 l -0.07113,6.027346 c -0.0455,3.855449 0.02936,6.215119 0.207745,6.548439 0.32429,0.60593 2.137929,0.74 2.575333,0.19036 z M -160.7031,96.490655 v -8.598958 h 4.07363 4.07364 l 0.8003,0.911495 c 0.59644,0.679304 0.84713,1.286261 0.98412,2.382702 0.19499,1.560666 -0.0378,4.599101 -0.43176,5.635273 -0.28383,0.746549 -1.7012,1.388192 -3.07528,1.392193 -0.55038,0.0016 -1.44718,0.07671 -1.99288,0.166909 l -0.99219,0.163997 v 3.272674 3.27267 h -1.71979 -1.71979 z m 6.11917,-0.834927 c 0.26141,-0.315352 0.34383,-1.106617 0.29426,-2.82494 -0.0379,-1.312789 -0.0974,-2.410056 -0.13229,-2.438374 -0.0349,-0.02832 -0.68851,-0.108834 -1.45249,-0.178927 l -1.38907,-0.127445 v 2.827481 c 0,1.555112 0.0794,2.906855 0.17639,3.003867 0.35956,0.359556 2.14275,0.173157 2.5032,-0.261662 z m 13.19689,2.223989 c 7.9e-4,-4.192859 0.11707,-7.62613 0.27771,-8.204586 0.44527,-1.603383 1.15285,-1.888873 4.71728,-1.903293 2.75677,-0.01114 3.15761,0.04769 3.89165,0.571294 l 0.81832,0.583723 0.17386,3.625297 c 0.0956,1.993913 0.17387,5.630532 0.17387,8.081378 v 4.45608 h -1.6821 -1.6821 l -0.16998,-1.62631 c -0.0935,-0.89447 -0.16999,-2.20416 -0.16999,-2.91042 v -1.2841 h -1.4552 -1.45521 v 2.91042 2.91041 h -1.71979 -1.7198 l 0.002,-7.209893 z m 6.61311,-4.519964 c 0,-1.794759 -0.0494,-3.312805 -0.10967,-3.373437 -0.0603,-0.06064 -0.7747,-0.06946 -1.5875,-0.01961 l -1.47783,0.09063 v 3.282804 3.282805 h 1.5875 1.5875 z m 13.75833,3.091043 V 87.81198 l 4.16348,0.151961 c 4.05122,0.147863 4.17917,0.170204 4.74554,0.828649 1.13024,1.313981 1.19816,5.456758 0.10848,6.616671 -0.58621,0.623985 -0.58801,0.646393 -0.11036,1.37465 0.40058,0.610748 0.50149,1.402414 0.57652,4.523019 l 0.091,3.78268 h -1.57659 -1.57659 l -0.12841,-3.33334 c -0.1418,-3.680877 -0.22948,-3.863916 -1.79511,-3.747169 l -0.92605,0.06905 -0.0738,3.505729 -0.0738,3.50573 h -1.71211 -1.71211 z m 6.18659,-3.46587 c -0.0958,-1.418828 -0.18745,-2.593613 -0.20378,-2.610631 -0.0163,-0.01701 -0.59523,-0.09169 -1.28646,-0.165936 l -1.25677,-0.134995 v 2.745626 2.745623 h 1.46055 1.46055 z m 13.709,4.011192 c 0.0799,-8.034698 0.0848,-8.097004 0.67738,-8.576535 0.752083,-0.608584 3.791333,-0.913016 6.121981,-0.61322 1.416021,0.182147 1.782577,0.339305 2.2485,0.96402 0.530681,0.711539 0.561137,1.109994 0.652219,8.532813 l 0.09554,7.786414 h -1.581822 -1.581824 l -0.163997,-0.99218 c -0.0902,-0.54571 -0.165309,-1.85539 -0.16691,-2.91042 l -0.0029,-1.91823 h -1.455208 -1.455208 v 2.91042 2.91041 h -1.734095 -1.734096 z m 6.38092,-3.614317 c -0.08565,-1.78263 -0.169077,-3.255616 -0.185391,-3.273301 -0.01632,-0.01767 -0.654741,-0.0895 -1.418725,-0.159596 l -1.389062,-0.127445 v 3.400743 3.400745 h 1.574453 1.574453 z m 53.257029,4.894791 c 0.08032,-3.747161 0.261779,-7.424782 0.403238,-8.172492 0.406308,-2.147615 0.785445,-2.347214 4.427437,-2.330868 3.370567,0.01513 4.119081,0.242263 4.585086,1.391322 0.17331,0.427339 0.340188,3.749638 0.417825,8.318288 l 0.129267,7.606768 h -1.753406 -1.753407 v -7.122106 c 0,-3.917162 -0.07227,-7.310443 -0.1606,-7.540625 -0.224496,-0.585034 -2.364721,-0.585034 -2.589217,0 -0.08833,0.230182 -0.1606,3.623463 -0.1606,7.540625 v 7.122106 H -39.782269 -41.6281 Z M -204.72742,79.395707 c 0.30689,-0.347674 5.42657,-6.169819 11.37709,-12.938098 5.95051,-6.76828 11.96955,-13.614374 13.37566,-15.213542 3.68578,-4.191859 5.48167,-5.899575 5.74927,-5.466994 0.48981,0.791787 14.11553,33.672093 14.00121,33.786406 -0.0682,0.06823 -10.23491,0.200625 -22.59263,0.294209 l -22.46857,0.170153 z m 54.8296,0.372427 c -0.83039,-0.05739 -1.55452,-0.24533 -1.62503,-0.421751 -0.07,-0.175025 -1.67571,-4.068696 -3.56835,-8.652603 -5.0941,-12.337688 -11.9619,-29.137581 -11.9619,-29.260981 0,-0.05927 13.76164,-0.107768 30.58142,-0.107768 16.81979,0 30.54174,0.0893 30.49323,0.198437 -0.0903,0.203107 -11.54306,11.337066 -25.22619,24.523914 -4.21868,4.06568 -9.09908,8.787792 -10.84533,10.493584 l -3.175,3.101443 -1.5875,0.114623 c -0.87313,0.06305 -2.26153,0.06804 -3.08535,0.01111 z m 22.82186,-0.07142 -6.45724,-0.139396 16.48513,-15.742708 c 9.06682,-8.65849 16.70531,-15.898288 16.97442,-16.08844 0.474453,-0.335243 0.489298,0.148412 0.489298,15.941145 v 16.286878 l -10.517188,-0.05904 c -5.78445,-0.03247 -13.42294,-0.121769 -16.97442,-0.198437 z m 35.958275,-16.159835 c 0,-13.819386 0.0573,-16.383831 0.362114,-16.205728 0.337986,0.197488 11.969035,11.071254 27.706959,25.902998 l 6.770115,6.380295 -2.776378,0.169876 c -1.527009,0.09343 -9.365827,0.169873 -17.419595,0.169873 h -14.643215 z m 61.71716,15.954293 c 0.166489,-0.588618 12.888991,-32.956328 12.99588,-33.063216 0.09422,-0.09422 3.86038,5.375395 14.7044883,21.355404 l 7.9898633,11.773958 -8.553177,0.162134 c -4.7042465,0.08918 -12.7640156,0.178472 -17.9105976,0.198437 -8.795123,0.03412 -9.349552,0.0085 -9.226457,-0.426717 z M -49.605809,74.882127 C -52.428227,72.229139 -61.569226,63.623246 -69.91914,55.757918 l -15.181659,-14.300595 30.768921,-0.06725 c 16.922905,-0.03699 30.810151,-0.02602 30.860544,0.02437 0.05039,0.05039 -3.275248,8.653156 -7.39031,19.117253 l -7.481932,19.025629 -3.065283,0.07421 -3.065282,0.07421 z"
                 id="path10144" /></g></g></g></g></g></g></svg>
